:SAMPLES-PER-SECOND 30
:FULLY-SPECIFIED
:DEGREES
359
root  40.3495 39.6434 -19.3202 178.104 14.9855 175.347
RightUpLeg  -14.9953 -24.9382 -10.7051
RightLeg  17.1377 -14.0568 0.626692
RightFoot  2.16283 0.154653 -1.17953
RightToes  0.000482159 0.542163 -0.142577
Spine  43.1063 -3.57815 7.97733
Spine1  5.29659 -1.40728 1.58346
HEad  -22.5564 32.0339 -32.7122
LeftShoulder1  10.3862 -16.6413 -44.9179
LeftArm  -16.1355 3.58234 -25.0954
LeftForeArm  10.1704 -65.4552 -24.8421
LeftHand  -0.25398 0.0180481 5.50724
RightShoulder  4.66504 9.5028 29.9015
RightArm  -9.69127 -6.70543 22.3687
RightForeArm  19.2487 77.5483 82.2514
RightHand  1.09543 -14.2873 -14.9799
LeftUpLeg  -18.236 12.6175 -2.72408
LeftLeg  6.6805 19.6273 -3.69559
LeftFoot  0.662433 -0.0203763 0.152378
LeftToes  1.06247e-005 4.65855e-005 -8.18501e-006
360
root  40.1488 39.6831 -19.0786 178.475 9.17532 175.169
RightUpLeg  -13.3673 -23.9131 -13.3217
RightLeg  16.6842 -20.2242 0.361983
RightFoot  2.5843 0.0703445 -0.429492
RightToes  0.000482159 0.542163 -0.142577
Spine  40.5892 -3.10748 8.10163
Spine1  4.70949 -1.04748 1.42567
HEad  -23.4326 35.8688 -35.4006
LeftShoulder1  10.3008 -16.3452 -45.2279
LeftArm  -14.7622 5.44102 -24.1595
LeftForeArm  12.1641 -66.7304 -26.4144
LeftHand  -0.25398 0.0180481 5.50724
RightShoulder  4.74277 9.53479 30.4176
RightArm  -8.85816 -10.6128 21.9825
RightForeArm  26.8667 77.651 90.3628
RightHand  1.11253 -14.1095 -15.4777
LeftUpLeg  -19.5856 21.6996 -5.19454
LeftLeg  12.0213 10.7416 0.497977
LeftFoot  -0.300542 -0.0614944 0.654812
LeftToes  1.06247e-005 4.65855e-005 -8.18501e-006
361
root  39.8537 39.6773 -18.9157 178.803 3.35281 175.431
RightUpLeg  -11.6199 -23.5611 -15.3315
RightLeg  16.6942 -25.5597 -0.220108
RightFoot  3.17496 0.0180135 0.0278438
RightToes  0.000482159 0.542163 -0.142577
Spine  38.3555 -2.85399 8.24037
Spine1  4.44251 -0.864985 1.37869
HEad  -25.1845 39.3778 -38.111
LeftShoulder1  10.2696 -16.0471 -45.8015
LeftArm  -13.6471 7.19552 -22.6317
LeftForeArm  14.1376 -68.2564 -28.66
LeftHand  -0.25398 0.0180481 5.50724
RightShoulder  4.79907 9.58213 30.7206
RightArm  -8.25316 -13.4941 22.188
RightForeArm  32.7743 77.5734 96.3898
RightHand  1.15637 -14.3662 -15.6026
LeftUpLeg  -20.4103 25.3014 -4.8949
LeftLeg  16.1465 8.22078 3.18221
LeftFoot  -0.950638 -0.148199 1.69369
LeftToes  1.06247e-005 4.65855e-005 -8.18501e-006
362
root  39.453 39.6519 -18.8089 179.129 -2.33499 176.019
RightUpLeg  -9.59594 -23.3206 -16.9791
RightLeg  16.557 -30.8939 -0.869678
RightFoot  4.14874 -0.0685184 0.709318
RightToes  0.000482159 0.542163 -0.142577
Spine  36.444 -2.71925 8.24988
Spine1  4.09828 -0.779688 1.29188
HEad  -26.9848 42.4385 -40.2371
LeftShoulder1  10.2083 -15.6937 -46.3854
LeftArm  -13.0341 9.05251 -21.0986
LeftForeArm  16.352 -69.7791 -31.3056
LeftHand  -0.25398 0.0180481 5.50724
RightShoulder  4.78758 9.52269 30.8007
RightArm  -7.62063 -15.441 22.8665
RightForeArm  36.5716 77.4814 99.6811
RightHand  1.22052 -15.2942 -14.9495
LeftUpLeg  -20.449 25.9551 -2.4702
LeftLeg  19.0309 10.3331 4.26121
LeftFoot  -1.84396 -0.243362 3.06968
LeftToes  1.06247e-005 4.65855e-005 -8.18501e-006
363
root  38.9451 39.6443 -18.7446 179.581 -8.02122 176.397
RightUpLeg  -7.28359 -22.7935 -18.8606
RightLeg  15.8937 -36.4261 -1.222
RightFoot  5.19316 -0.184868 1.51923
RightToes  0.000482159 0.542163 -0.142577
Spine  34.7467 -2.60574 7.80976
Spine1  3.54183 -0.781537 0.946717
HEad  -28.296 44.3998 -41.0007
LeftShoulder1  10.0713 -15.3187 -46.6835
LeftArm  -12.7027 10.888 -19.8958
LeftForeArm  18.8072 -71.1249 -34.0495
LeftHand  -0.25398 0.0180481 5.50724
RightShoulder  4.80792 9.45926 31.1409
RightArm  -7.0511 -17.0226 23.4045
RightForeArm  39.6492 77.4077 101.86
RightHand  1.25705 -16.3136 -13.9941
LeftUpLeg  -20.6485 28.9325 -1.40248
LeftLeg  20.0227 12.6057 5.34804
LeftFoot  -3.28312 -0.295527 4.49083
LeftToes  1.06247e-005 4.65855e-005 -8.18501e-006
364
root  38.3064 39.6403 -18.7285 -179.875 -13.9447 176.296
RightUpLeg  -4.613 -22.1154 -21.2479
RightLeg  15.0043 -41.7477 -1.34944
RightFoot  6.3401 -0.262987 1.97178
RightToes  0.000482159 0.542163 -0.142577
Spine  33.262 -2.49094 6.94302
Spine1  3.02273 -0.885493 0.544628
HEad  -28.7843 44.6491 -40.0332
LeftShoulder1  9.96062 -15.0244 -46.91
LeftArm  -12.2323 12.2213 -18.8998
LeftForeArm  21.2371 -72.2296 -36.6784
LeftHand  -0.25398 0.0180481 5.50724
RightShoulder  4.86357 9.42826 31.6646
RightArm  -6.89394 -18.6661 23.658
RightForeArm  43.0124 77.2905 104.456
RightHand  1.26087 -16.7187 -13.5623
LeftUpLeg  -20.41 31.837 -1.62582
LeftLeg  19.5481 16.7337 6.77673
LeftFoot  -4.7596 -0.295941 5.61643
LeftToes  1.06247e-005 4.65855e-005 -8.18501e-006
365
root  37.4892 39.5857 -18.7806 -179.079 -19.8184 176.073
RightUpLeg  -1.94775 -21.8657 -23.5826
RightLeg  14.2724 -45.9283 -1.54019
RightFoot  7.77489 -0.412096 2.74717
RightToes  0.000482159 0.542163 -0.142577
Spine  31.5324 -2.3104 6.19035
Spine1  2.87504 -0.841269 0.000517822
HEad  -27.8586 43.2065 -37.6501
LeftShoulder1  9.92615 -14.8348 -47.2384
LeftArm  -11.5908 13.0463 -18.2493
LeftForeArm  23.6211 -73.1196 -39.0956
LeftHand  -0.25398 0.0180481 5.50724
RightShoulder  4.85781 9.36028 31.8191
RightArm  -7.10355 -20.5519 23.8377
RightForeArm  46.5529 77.1096 107.5
RightHand  1.22969 -16.4119 -13.6061
LeftUpLeg  -19.9187 34.1637 -2.62275
LeftLeg  18.5928 20.2995 7.7254
LeftFoot  -5.24411 -0.238159 5.08061
LeftToes  1.06247e-005 4.65855e-005 -8.18501e-006
